<svg width="52" height="52" viewBox="0 0 52 52" fill="none" xmlns="http://www.w3.org/2000/svg">
<g clip-path="url(#clip0_7930_2492)">
<path d="M8.6665 45.5C11.1517 36.79 12.963 28.1082 12.9998 19.5H25.9998C26.0367 28.1082 27.848 36.79 30.3332 45.5" stroke="#D0A354" stroke-width="3.25" stroke-linecap="round" stroke-linejoin="round"/>
<path d="M27.0835 28.1666H36.8335C36.8877 33.826 38.7705 39.6413 41.1668 45.5" stroke="#D0A354" stroke-width="3.25" stroke-linecap="round" stroke-linejoin="round"/>
<path d="M19.5 10.8333C19.9922 10.1476 20.6439 9.592 21.3989 9.21451C22.1539 8.83702 22.9894 8.64899 23.8333 8.66667C24.6772 8.64899 25.5128 8.83702 26.2677 9.21451C27.0227 9.592 27.6745 10.1476 28.1667 10.8333C28.6589 11.5191 29.3106 12.0747 30.0656 12.4522C30.8206 12.8297 31.6561 13.0177 32.5 13C33.3439 13.0177 34.1794 12.8297 34.9344 12.4522C35.6894 12.0747 36.3411 11.5191 36.8333 10.8333C37.3255 10.1476 37.9773 9.592 38.7323 9.21451C39.4872 8.83702 40.3228 8.64899 41.1667 8.66667C42.0106 8.64899 42.8461 8.83702 43.6011 9.21451C44.3561 9.592 45.0078 10.1476 45.5 10.8333" stroke="#D0A354" stroke-width="3.25" stroke-linecap="round" stroke-linejoin="round"/>
<path d="M6.5 45.5H47.6667" stroke="#D0A354" stroke-width="3.25" stroke-linecap="round" stroke-linejoin="round"/>
</g>
<defs>
<clipPath id="clip0_7930_2492">
<rect width="52" height="52" fill="white"/>
</clipPath>
</defs>
</svg>
