<svg width="52" height="52" viewBox="0 0 52 52" fill="none" xmlns="http://www.w3.org/2000/svg">
<g clip-path="url(#clip0_7903_10482)">
<path d="M10.8335 45.5V10.8333C10.8335 9.68406 11.29 8.58186 12.1027 7.7692C12.9154 6.95655 14.0176 6.5 15.1668 6.5H36.8335C37.9828 6.5 39.085 6.95655 39.8976 7.7692C40.7103 8.58186 41.1668 9.68406 41.1668 10.8333V45.5L34.6668 41.1667L30.3335 45.5L26.0002 41.1667L21.6668 45.5L17.3335 41.1667L10.8335 45.5Z" stroke="#D0A354" stroke-width="3.25" stroke-linecap="round" stroke-linejoin="round"/>
<path d="M30.3332 17.3334H24.9165C24.0546 17.3334 23.2279 17.6758 22.6184 18.2853C22.0089 18.8948 21.6665 19.7214 21.6665 20.5834C21.6665 21.4453 22.0089 22.272 22.6184 22.8815C23.2279 23.491 24.0546 23.8334 24.9165 23.8334H27.0832C27.9451 23.8334 28.7718 24.1758 29.3813 24.7853C29.9908 25.3948 30.3332 26.2214 30.3332 27.0834C30.3332 27.9453 29.9908 28.772 29.3813 29.3815C28.7718 29.991 27.9451 30.3334 27.0832 30.3334H21.6665M25.9998 30.3334V33.5834M25.9998 14.0834V17.3334" stroke="#D0A354" stroke-width="3.25" stroke-linecap="round" stroke-linejoin="round"/>
</g>
<defs>
<clipPath id="clip0_7903_10482">
<rect width="52" height="52" fill="white"/>
</clipPath>
</defs>
</svg>
