<svg width="52" height="52" viewBox="0 0 52 52" fill="none" xmlns="http://www.w3.org/2000/svg">
<g clip-path="url(#clip0_7930_2480)">
<path d="M32.5 45.5H13C11.2761 45.5 9.62279 44.8152 8.40381 43.5962C7.18482 42.3772 6.5 40.7239 6.5 39V36.8333H28.1667V41.1667C28.1667 42.3159 28.6232 43.4181 29.4359 44.2308C30.2485 45.0435 31.3507 45.5 32.5 45.5ZM32.5 45.5C33.6493 45.5 34.7515 45.0435 35.5641 44.2308C36.3768 43.4181 36.8333 42.3159 36.8333 41.1667V10.8333C36.8333 9.97628 37.0875 9.13848 37.5636 8.42586C38.0398 7.71325 38.7166 7.15784 39.5084 6.82986C40.3002 6.50188 41.1715 6.41606 42.0121 6.58327C42.8526 6.75047 43.6248 7.16318 44.2308 7.76921C44.8368 8.37523 45.2495 9.14736 45.4167 9.98794C45.5839 10.8285 45.4981 11.6998 45.1701 12.4916C44.8422 13.2834 44.2868 13.9602 43.5741 14.4364C42.8615 14.9125 42.0237 15.1667 41.1667 15.1667H36.8333M41.1667 6.5H17.3333C15.6094 6.5 13.9561 7.18482 12.7371 8.40381C11.5182 9.62279 10.8333 11.2761 10.8333 13V36.8333" stroke="#D0A354" stroke-width="3.25" stroke-linecap="round" stroke-linejoin="round"/>
<path d="M19.5 15.1666H28.1667" stroke="#D0A354" stroke-width="3.25" stroke-linecap="round" stroke-linejoin="round"/>
<path d="M19.5 23.8334H28.1667" stroke="#D0A354" stroke-width="3.25" stroke-linecap="round" stroke-linejoin="round"/>
</g>
<defs>
<clipPath id="clip0_7930_2480">
<rect width="52" height="52" fill="white"/>
</clipPath>
</defs>
</svg>
